# xmcd
#
# Track frame offsets:
#	150
#	12670
#	25265
#	37615
#	49922
#	61331
#	76152
#	88368
#	98809
#	115521
#	130520
#
# Disc length: 2010 seconds
#
# Revision: 0
# Processed by: cddbd v1.5.1PL0 Copyright (c) Steve Scherf et al.
# Submitted via: audiograbber 1.81.03
#
DISCID=7e07d80b
DTITLE=Albert King - King Of The Blues Guitar (Lp)
DYEAR=1969
DGENRE=Blues
TTITLE0=Cold Feet
TTITLE1=You're Gonna Need Me
TTITLE2=Born Under A Bad Sign
TTITLE3=I Love Lucy
TTITLE4=Crosscut Saw
TTITLE5=You Sure Drive A Bargain
TTITLE6=Oh Pretty Woman
TTITLE7=Overall Junction
TTITLE8=Funk-Shun
TTITLE9=Laundromat Blues
TTITLE10=Personal Manager
EXTD=
EXTT0=
EXTT1=
EXTT2=
EXTT3=
EXTT4=
EXTT5=
EXTT6=
EXTT7=
EXTT8=
EXTT9=
EXTT10=
PLAYORDER=
